<svg width="107" height="18" viewBox="0 0 107 18" fill="none" xmlns="http://www.w3.org/2000/svg">
<path fill-rule="evenodd" clip-rule="evenodd" d="M10.1622 3.13275L11.5327 5.87082C11.6671 6.13962 11.9263 6.32601 12.227 6.36914L15.293 6.81046C16.0505 6.91983 16.3519 7.83791 15.8037 8.36396L13.5866 10.4943C13.3687 10.7038 13.2696 11.005 13.3211 11.3007L13.8443 14.3084C13.9732 15.0524 13.1813 15.62 12.5042 15.268L9.76389 13.847C9.49525 13.7076 9.1735 13.7076 8.90407 13.847L6.16374 15.268C5.48666 15.62 4.69478 15.0524 4.82442 14.3084L5.34687 11.3007C5.39841 11.005 5.29923 10.7038 5.08135 10.4943L2.86424 8.36396C2.31602 7.83791 2.61747 6.91983 3.37498 6.81046L6.44097 6.36914C6.74164 6.32601 7.00169 6.13962 7.13601 5.87082L8.50579 3.13275C8.84472 2.45575 9.82325 2.45575 10.1622 3.13275Z" fill="#FFB800"/>
<path fill-rule="evenodd" clip-rule="evenodd" d="M32.1622 3.13275L33.5327 5.87082C33.6671 6.13962 33.9263 6.32601 34.227 6.36914L37.293 6.81046C38.0505 6.91983 38.3519 7.83791 37.8037 8.36396L35.5866 10.4943C35.3687 10.7038 35.2696 11.005 35.3211 11.3007L35.8443 14.3084C35.9732 15.0524 35.1813 15.62 34.5042 15.268L31.7639 13.847C31.4952 13.7076 31.1735 13.7076 30.9041 13.847L28.1637 15.268C27.4867 15.62 26.6948 15.0524 26.8244 14.3084L27.3469 11.3007C27.3984 11.005 27.2992 10.7038 27.0813 10.4943L24.8642 8.36396C24.316 7.83791 24.6175 6.91983 25.375 6.81046L28.441 6.36914C28.7416 6.32601 29.0017 6.13962 29.136 5.87082L30.5058 3.13275C30.8447 2.45575 31.8232 2.45575 32.1622 3.13275Z" fill="#FFB800"/>
<path fill-rule="evenodd" clip-rule="evenodd" d="M54.1622 3.13275L55.5327 5.87082C55.6671 6.13962 55.9263 6.32601 56.227 6.36914L59.293 6.81046C60.0505 6.91983 60.3519 7.83791 59.8037 8.36396L57.5866 10.4943C57.3687 10.7038 57.2696 11.005 57.3211 11.3007L57.8443 14.3084C57.9732 15.0524 57.1813 15.62 56.5042 15.268L53.7639 13.847C53.4952 13.7076 53.1735 13.7076 52.9041 13.847L50.1637 15.268C49.4867 15.62 48.6948 15.0524 48.8244 14.3084L49.3469 11.3007C49.3984 11.005 49.2992 10.7038 49.0813 10.4943L46.8642 8.36396C46.316 7.83791 46.6175 6.91983 47.375 6.81046L50.441 6.36914C50.7416 6.32601 51.0017 6.13962 51.136 5.87082L52.5058 3.13275C52.8447 2.45575 53.8232 2.45575 54.1622 3.13275Z" fill="#FFB800"/>
<path fill-rule="evenodd" clip-rule="evenodd" d="M76.1622 3.13275L77.5327 5.87082C77.6671 6.13962 77.9263 6.32601 78.227 6.36914L81.293 6.81046C82.0505 6.91983 82.3519 7.83791 81.8037 8.36396L79.5866 10.4943C79.3687 10.7038 79.2696 11.005 79.3211 11.3007L79.8443 14.3084C79.9732 15.0524 79.1813 15.62 78.5042 15.268L75.7639 13.847C75.4952 13.7076 75.1735 13.7076 74.9041 13.847L72.1637 15.268C71.4867 15.62 70.6948 15.0524 70.8244 14.3084L71.3469 11.3007C71.3984 11.005 71.2992 10.7038 71.0813 10.4943L68.8642 8.36396C68.316 7.83791 68.6175 6.91983 69.375 6.81046L72.441 6.36914C72.7416 6.32601 73.0017 6.13962 73.136 5.87082L74.5058 3.13275C74.8447 2.45575 75.8232 2.45575 76.1622 3.13275Z" fill="#FFB800"/>
<path fill-rule="evenodd" clip-rule="evenodd" d="M98.1622 3.13275L99.5327 5.87082C99.6671 6.13962 99.9263 6.32601 100.227 6.36914L103.293 6.81046C104.051 6.91983 104.352 7.83791 103.804 8.36396L101.587 10.4943C101.369 10.7038 101.27 11.005 101.321 11.3007L101.844 14.3084C101.973 15.0524 101.181 15.62 100.504 15.268L97.7639 13.847C97.4952 13.7076 97.1735 13.7076 96.9041 13.847L94.1637 15.268C93.4867 15.62 92.6948 15.0524 92.8244 14.3084L93.3469 11.3007C93.3984 11.005 93.2992 10.7038 93.0813 10.4943L90.8642 8.36396C90.316 7.83791 90.6175 6.91983 91.375 6.81046L94.441 6.36914C94.7416 6.32601 95.0017 6.13962 95.136 5.87082L96.5058 3.13275C96.8447 2.45575 97.8232 2.45575 98.1622 3.13275Z" fill="#FFB800"/>
</svg>
